<svg width="48" height="48" viewBox="0 0 48 48" fill="none" xmlns="http://www.w3.org/2000/svg">
<circle cx="24" cy="24" r="24" fill="white"/>
<path fill-rule="evenodd" clip-rule="evenodd" d="M14.2493 24.8668H30.0384L24.6752 30.1704C24.2018 30.6534 24.2118 31.4255 24.6902 31.9024C25.1724 32.3755 25.9532 32.3854 26.4417 31.9172L33.9373 24.5049C34.1722 24.2738 34.3034 23.96 34.3034 23.6364V23.6314C34.3034 23.4721 34.2696 23.3078 34.2059 23.1583C34.1422 23.0088 34.0498 22.8741 33.9373 22.758L26.4417 15.3457C25.9482 14.8774 25.1724 14.8873 24.6902 15.3605C24.2068 15.8373 24.2018 16.6095 24.6752 17.0925L30.0384 22.396H14.2493C13.5609 22.396 13 22.9507 13 23.6314C13 24.3121 13.5609 24.8668 14.2493 24.8668Z" fill="#0961F5"/>
</svg>
