<svg width="16" height="20" viewBox="0 0 16 20" fill="none" xmlns="http://www.w3.org/2000/svg">
<path fill-rule="evenodd" clip-rule="evenodd" d="M14.8678 18.4615C14.8678 18.7469 14.6363 18.9785 14.3509 18.9785H5.12012V4.09846H14.8678V18.4615ZM1.02166 17.9446V3.84615L1.22935 3.95462L1.43628 4.02308H1.50551L1.68243 4.06231H4.09858V18.9785H2.0432C1.47858 18.9723 1.02166 18.5123 1.02166 17.9446ZM2.0432 1.02154H13.5817C13.4101 1.33692 13.3201 1.69462 13.3294 2.05538C13.3294 2.41308 13.4255 2.76769 13.6055 3.07692H2.06705C1.53551 3.03154 1.12705 2.58385 1.12705 2.04923C1.12705 1.51462 1.53551 1.07 2.06705 1.02154H2.0432ZM15.3847 3.07692C14.994 3.11 14.6217 2.92385 14.417 2.59C14.2124 2.26 14.2124 1.84231 14.417 1.50846C14.6217 1.17769 14.994 0.988462 15.3847 1.02154C15.6432 0.991539 15.8355 0.772308 15.8355 0.510769C15.8355 0.252308 15.6432 0.0330769 15.3847 0H2.0432C0.913199 0.00307692 0.00012207 0.922308 0.00012207 2.05538V17.9446C0.00012207 19.0777 0.913199 19.9969 2.0432 20H14.3509C15.2017 20 15.8894 19.3115 15.8894 18.4615V3.59385C15.8894 3.31154 15.664 3.08 15.3847 3.07692Z" fill="black"/>
<path fill-rule="evenodd" clip-rule="evenodd" d="M6.65862 17.9447H9.23093C9.48939 17.9147 9.6817 17.6955 9.6817 17.4339C9.6817 17.1755 9.48939 16.9562 9.23093 16.9232H6.65862C6.40016 16.9562 6.20785 17.1755 6.20785 17.4339C6.20785 17.6955 6.40016 17.9147 6.65862 17.9447ZM6.65862 15.9016H10.2525C10.5379 15.9016 10.7694 15.6701 10.7694 15.3847C10.7694 15.0993 10.5379 14.8678 10.2525 14.8678H6.65862C6.37631 14.8678 6.14478 15.0993 6.14478 15.3847C6.14478 15.6701 6.37631 15.9016 6.65862 15.9016ZM6.65862 13.8462H9.23093C9.48939 13.8132 9.6817 13.5939 9.6817 13.3355C9.6817 13.0739 9.48939 12.8547 9.23093 12.8247H6.65862C6.40016 12.8547 6.20785 13.0739 6.20785 13.3355C6.20785 13.5939 6.40016 13.8132 6.65862 13.8462ZM7.17554 7.9447H12.8125V6.40624H7.17554V7.9447ZM6.65862 8.97855H13.3294C13.6148 8.97855 13.8463 8.74701 13.8463 8.46163V5.90163C13.8463 5.61624 13.6148 5.3847 13.3294 5.3847H6.65862C6.37939 5.38778 6.15401 5.61932 6.15401 5.90163V8.46163C6.15401 8.74394 6.37939 8.9724 6.65862 8.97855Z" fill="black"/>
</svg>
