<svg width="19" height="24" viewBox="0 0 19 24" fill="none" xmlns="http://www.w3.org/2000/svg">
<mask id="mask0_1_1808" style="mask-type:luminance" maskUnits="userSpaceOnUse" x="0" y="1" width="20" height="23">
<path fill-rule="evenodd" clip-rule="evenodd" d="M0.000244141 1.04022H19.0019V23.9218H0.000244141V1.04022Z" fill="white"/>
</mask>
<g mask="url(#mask0_1_1808)">
<path fill-rule="evenodd" clip-rule="evenodd" d="M14.5272 13.8278C14.7382 14.3868 14.8792 14.9688 14.9492 15.5618L15.0932 13.7928L14.5272 13.8278ZM11.5042 19.4328L12.5702 20.4958C13.4962 19.3508 14.0002 17.9178 14.0002 16.4458C14.0002 15.4458 13.7772 14.4848 13.3402 13.5858C13.2612 13.4368 13.2692 13.2578 13.3552 13.1138C13.4372 12.9688 13.5902 12.8748 13.7572 12.8678L15.6092 12.7658C15.7542 12.7578 15.8902 12.8118 15.9962 12.9138C16.0972 13.0188 16.1482 13.1598 16.1362 13.3048L15.6872 18.8078C15.6522 19.2308 15.8432 19.4568 16.0112 19.5748C16.2852 19.7618 16.6792 19.7968 16.9722 19.6568C17.2342 19.5318 17.3902 19.2848 17.4142 18.9498L17.9962 11.8828C18.0152 11.6328 17.9292 11.3898 17.7542 11.2148C17.5782 11.0348 17.3322 10.9418 17.0822 10.9528L12.3042 11.2188C12.1012 11.2348 11.9142 11.1248 11.8242 10.9418C11.7342 10.7618 11.7652 10.5428 11.9022 10.3908L14.5272 7.40679C14.7422 7.15979 14.8392 6.82779 14.7892 6.49579C14.7462 6.19579 14.5862 5.93379 14.3632 5.79679V5.79279C12.2772 4.58179 10.1912 3.37079 8.10224 2.15979C7.77724 1.96879 7.36724 2.00779 7.09024 2.25779L4.02724 4.98879C3.55524 5.40979 3.69424 5.90679 3.96424 6.20279C4.23024 6.50379 4.71124 6.70279 5.18424 6.28179L7.50724 4.21479C7.66824 4.07079 7.90224 4.04679 8.09024 4.15679L10.0072 5.26979C10.1362 5.34379 10.2262 5.47279 10.2502 5.62079C10.2732 5.76979 10.2302 5.91779 10.1322 6.03179L6.74224 9.88279C6.66824 9.96879 6.56224 10.0278 6.44824 10.0428C5.34424 10.2228 4.30924 10.6838 3.43824 11.3828L4.50424 12.4498C5.36724 11.8008 6.41824 11.4528 7.49624 11.4528C9.47724 11.4368 11.2772 12.6098 12.0622 14.4258C12.8082 16.1138 12.5902 17.9918 11.5042 19.4328ZM12.5932 21.7308C12.4612 21.7258 12.3362 21.6758 12.2422 21.5818L10.4722 19.8168C10.2852 19.6288 10.2772 19.3248 10.4572 19.1288C11.5312 17.9648 11.8002 16.2688 11.1482 14.8278C10.5192 13.3748 9.07824 12.4418 7.49624 12.4528C6.50024 12.4528 5.54724 12.8248 4.80924 13.4918C4.60924 13.6718 4.30924 13.6638 4.11724 13.4758L2.35224 11.7108C2.25424 11.6138 2.20324 11.4848 2.20324 11.3478C2.20724 11.2148 2.26224 11.0858 2.36224 10.9918C3.40224 10.0118 4.70324 9.35179 6.10924 9.08579L8.98024 5.82779L7.90224 5.19979L5.85224 7.02779C4.93824 7.83979 3.83624 7.56279 3.21924 6.86779C2.60224 6.17579 2.45324 5.05079 3.36224 4.24179L6.42224 1.51579C7.02724 0.97679 7.90524 0.88679 8.60524 1.29279C13.4332 4.08979 14.5862 4.76179 14.8902 4.95279L14.8942 4.94579C15.3672 5.23879 15.6912 5.74979 15.7812 6.34779C15.8712 6.97279 15.6912 7.59779 15.2812 8.06279L13.4412 10.1528L17.0232 9.95279C17.5622 9.91779 18.0932 10.1208 18.4682 10.5118C18.8472 10.8988 19.0392 11.4258 18.9962 11.9608L18.4142 19.0278C18.3552 19.7228 17.9882 20.2818 17.4022 20.5578C16.7652 20.8508 16.0232 20.7888 15.4452 20.3988C14.9062 20.0238 14.6322 19.4178 14.6872 18.7258L14.7072 18.5188C14.3752 19.6638 13.7772 20.7068 12.9572 21.5708C12.8672 21.6718 12.7382 21.7258 12.6012 21.7308H12.5932ZM1.80124 13.3358C1.27324 14.2778 1.00024 15.3358 1.00024 16.4418C1.00024 18.8748 2.28024 21.0118 4.43424 22.1488C6.39824 23.1918 8.71124 23.1718 10.6052 22.1368L9.48724 21.0238C8.86224 21.2968 8.18424 21.4368 7.50024 21.4418C5.74624 21.4498 4.11724 20.5278 3.22324 19.0188C2.37524 17.6008 2.26624 15.9218 2.91424 14.4528L1.80124 13.3358ZM7.52324 23.9218C6.28024 23.9218 5.05924 23.6178 3.96424 23.0348C1.48024 21.7188 0.000244141 19.2538 0.000244141 16.4418C0.000244141 14.9258 0.448244 13.4808 1.30124 12.2538C1.38224 12.1328 1.51624 12.0548 1.66424 12.0388C1.81224 12.0278 1.95724 12.0818 2.06224 12.1868L3.87124 13.9958C4.02724 14.1528 4.06224 14.3898 3.96124 14.5858C3.30124 15.8168 3.34824 17.2818 4.08224 18.5038C4.79724 19.7108 6.09824 20.4458 7.50024 20.4418C8.15524 20.4418 8.78024 20.2848 9.35524 19.9808C9.54724 19.8748 9.78924 19.9098 9.94124 20.0668L11.7612 21.8748C11.8672 21.9808 11.9222 22.1288 11.9062 22.2778C11.8942 22.4258 11.8122 22.5578 11.6912 22.6438C10.4612 23.4808 9.00724 23.9258 7.52324 23.9218Z" fill="#1D1D1B"/>
</g>
<mask id="mask1_1_1808" style="mask-type:luminance" maskUnits="userSpaceOnUse" x="12" y="0" width="7" height="6">
<path fill-rule="evenodd" clip-rule="evenodd" d="M12.7852 0H18.3672V5.5039H12.7852V0Z" fill="white"/>
</mask>
<g mask="url(#mask1_1_1808)">
<path fill-rule="evenodd" clip-rule="evenodd" d="M15.5742 0.929878C14.5902 0.929878 13.7852 1.73088 13.7852 2.71488C13.7852 3.70688 14.5862 4.50788 15.5742 4.50788C16.5622 4.50788 17.3672 3.70688 17.3672 2.71488C17.3672 1.73088 16.5622 0.929878 15.5742 0.929878ZM15.5742 5.50388C14.0352 5.50388 12.7852 4.25388 12.7852 2.71488C12.8242 1.20288 14.0622 -0.00012207 15.5742 -0.00012207C17.0902 -0.00012207 18.3242 1.20288 18.3672 2.71488C18.3632 4.25788 17.1132 5.50388 15.5742 5.50388Z" fill="#1D1D1B"/>
</g>
</svg>
