<svg width="15" height="23" viewBox="0 0 15 23" fill="none" xmlns="http://www.w3.org/2000/svg">
<path fill-rule="evenodd" clip-rule="evenodd" d="M2.63542 1.4375C1.97321 1.4375 1.4375 1.97321 1.4375 2.63542V19.8854C1.4375 20.5476 1.97321 21.0833 2.63542 21.0833H12.2188C12.881 21.0833 13.4167 20.5476 13.4167 19.8854V2.63542C13.4167 1.97321 12.881 1.4375 12.2188 1.4375H2.63542ZM0 2.63542C0 1.17875 1.17875 0 2.63542 0H12.2188C13.6754 0 14.8542 1.17875 14.8542 2.63542V19.8854C14.8542 21.3421 13.6754 22.5208 12.2188 22.5208H2.63542C1.17875 22.5208 0 21.3421 0 19.8854V2.63542Z" fill="#1D1D1B"/>
<path fill-rule="evenodd" clip-rule="evenodd" d="M4.79162 18.9271C4.79162 18.5303 5.11362 18.2083 5.51037 18.2083H9.34371C9.74046 18.2083 10.0625 18.5303 10.0625 18.9271C10.0625 19.3238 9.74046 19.6458 9.34371 19.6458H5.51037C5.11362 19.6458 4.79162 19.3238 4.79162 18.9271ZM4.75808 1.4375L4.93058 1.78537C4.97179 1.86396 5.05325 1.91667 5.14333 1.91667H9.71075C9.80083 1.91667 9.88229 1.86396 9.9235 1.78537L10.096 1.4375H4.75808ZM2.98325 0.340208C3.11454 0.131292 3.34262 0 3.59371 0H11.2604C11.5076 0 11.7395 0.131292 11.8708 0.340208C12.0012 0.553917 12.0127 0.8165 11.9044 1.04075L11.2077 2.42554C10.9269 2.99479 10.3432 3.35417 9.71075 3.35417H5.14333C4.51083 3.35417 3.92721 2.99479 3.64642 2.42554L2.94971 1.04075C2.83758 0.8165 2.85292 0.550083 2.98325 0.340208Z" fill="#1D1D1B"/>
</svg>
