<svg width="28" height="28" viewBox="0 0 28 28" fill="none" xmlns="http://www.w3.org/2000/svg">
<path fill-rule="evenodd" clip-rule="evenodd" d="M28 14C28 21.7338 21.7338 28 14 28C6.26617 28 0 21.7338 0 14C0 6.26617 6.26617 0 14 0C21.7338 0 28 6.26617 28 14Z" fill="#50B748"/>
<path fill-rule="evenodd" clip-rule="evenodd" d="M16.9436 27.6718C17.2119 27.617 17.4814 27.5575 17.7451 27.4898C18.1966 27.3661 18.6388 27.2156 19.0716 27.0476C19.5091 26.8785 19.9338 26.6871 20.3479 26.4783C20.7668 26.2636 21.1728 26.0315 21.5648 25.7806C21.9568 25.5298 22.3348 25.2568 22.7034 24.9651C23.0686 24.6781 23.4198 24.3678 23.7523 24.04C24.0894 23.7156 24.4079 23.3738 24.7089 23.0191C25.0099 22.6633 25.2923 22.29 25.5524 21.9026C25.8161 21.52 26.0623 21.1233 26.2863 20.7126C26.5091 20.3031 26.7144 19.8831 26.8964 19.455C27.0796 19.0221 27.2383 18.5846 27.3748 18.1378C27.4938 17.7458 27.5941 17.3538 27.6804 16.9525L19.3586 8.63531C17.9411 7.20964 16.0138 6.41164 14.0036 6.41164C11.9888 6.40697 10.0579 7.20964 8.63461 8.63531C7.21478 10.0575 6.41211 11.9848 6.41211 13.9996C6.41211 16.0098 7.21478 17.9418 8.63461 19.364L16.9436 27.6671V27.6718Z" fill="#10A711"/>
<path fill-rule="evenodd" clip-rule="evenodd" d="M17.4546 11.6668C17.3449 11.6761 17.2399 11.7169 17.1489 11.7858L12.8883 14.9848L10.9143 13.0061C10.4861 12.5651 9.64378 13.4028 10.0894 13.8309L12.4228 16.1643C12.6281 16.3649 12.9478 16.3883 13.1846 16.2191L17.8513 12.7191C18.2433 12.4368 18.0018 11.6761 17.5141 11.6668H17.4546ZM14.0001 6.41211C15.9414 6.41211 17.8781 7.15528 19.3644 8.63578C20.7854 10.0579 21.5881 11.9853 21.5881 14.0001C21.5881 16.0149 20.7854 17.9423 19.3644 19.3644C17.9423 20.7854 16.0149 21.5881 14.0001 21.5881C11.9853 21.5881 10.0579 20.7854 8.63578 19.3644C7.21478 17.9423 6.41211 16.0149 6.41211 14.0001C6.41211 11.9853 7.21478 10.0579 8.63578 8.63578C10.0579 7.21011 11.9899 6.41211 14.0001 6.41211Z" fill="white"/>
</svg>
