<svg width="26" height="28" viewBox="0 0 26 28" fill="none" xmlns="http://www.w3.org/2000/svg">
<path d="M15.3262 9.51L10.1062 0.93C9.76621 0.35 9.15621 0 8.48621 0H1.89621C0.44621 0 -0.46379 1.56 0.24621 2.82C1.56585 5.15472 3.42836 7.13729 5.67621 8.6C6.43621 9.19 7.37621 9.51 8.34621 9.51H15.3262Z" fill="#0074BA"/>
<path d="M23.2161 0H16.6261C15.9561 0 15.3461 0.35 15.0061 0.93L9.78613 9.51H16.7761C17.7461 9.51 18.6761 9.19 19.4461 8.6C21.6961 7.14 23.5561 5.16 24.8761 2.82C25.5761 1.56 24.6661 0 23.2161 0Z" fill="#00A6ED"/>
<path d="M12.5478 28C18.0928 28 22.5878 23.393 22.5878 17.71C22.5878 12.027 18.0928 7.42 12.5478 7.42C7.00281 7.42 2.50781 12.027 2.50781 17.71C2.50781 23.393 7.00281 28 12.5478 28Z" fill="#FFB02E"/>
<path d="M10.6338 14.041C10.6338 13.7758 10.7391 13.5214 10.9267 13.3339C11.1142 13.1464 11.3686 13.041 11.6338 13.041H12.5578C12.823 13.041 13.0774 13.1464 13.2649 13.3339C13.4524 13.5214 13.5578 13.7758 13.5578 14.041V21C13.5578 21.2652 13.4524 21.5196 13.2649 21.7071C13.0774 21.8946 12.823 22 12.5578 22C12.2926 22 12.0382 21.8946 11.8507 21.7071C11.6631 21.5196 11.5578 21.2652 11.5578 21V15.038C11.3065 15.0188 11.0717 14.9055 10.9003 14.7206C10.729 14.5358 10.6338 14.293 10.6338 14.041Z" fill="#6D4534"/>
<path d="M12.5586 26.76C10.1986 26.76 7.97861 25.82 6.31861 24.11C4.64809 22.3997 3.71772 20.1007 3.72861 17.71C3.72861 15.29 4.64861 13.02 6.31861 11.31C7.1289 10.4726 8.09933 9.80673 9.17217 9.35197C10.245 8.89721 11.3984 8.66286 12.5636 8.66286C13.7289 8.66286 14.8822 8.89721 15.955 9.35197C17.0279 9.80673 17.9983 10.4726 18.8086 11.31C22.2486 14.84 22.2486 20.58 18.8086 24.11C17.1286 25.82 14.9086 26.76 12.5586 26.76ZM12.5486 9.89C10.5986 9.89 8.63861 10.65 7.15861 12.18C5.71872 13.6595 4.91784 15.6455 4.92861 17.71C4.92861 19.8 5.71861 21.76 7.15861 23.24C7.85681 23.9646 8.69404 24.5409 9.62018 24.9344C10.5463 25.3279 11.5423 25.5305 12.5486 25.53C14.5886 25.53 16.4986 24.72 17.9386 23.24C20.9086 20.19 20.9086 15.23 17.9386 12.18C17.2411 11.4544 16.404 10.8775 15.4777 10.484C14.5514 10.0904 13.5551 9.88838 12.5486 9.89Z" fill="#FCD53F"/>
</svg>
