<svg width="26" height="28" viewBox="0 0 26 28" fill="none" xmlns="http://www.w3.org/2000/svg">
<path d="M15.3262 9.51L10.1062 0.93C9.76621 0.35 9.15621 0 8.48621 0H1.89621C0.44621 0 -0.46379 1.56 0.24621 2.82C1.56585 5.15472 3.42836 7.13729 5.67621 8.6C6.43621 9.19 7.37621 9.51 8.34621 9.51H15.3262Z" fill="#0074BA"/>
<path d="M23.2161 0H16.6261C15.9561 0 15.3461 0.35 15.0061 0.93L9.78613 9.51H16.7761C17.7461 9.51 18.6761 9.19 19.4461 8.6C21.6961 7.14 23.5561 5.16 24.8761 2.82C25.5761 1.56 24.6661 0 23.2161 0Z" fill="#00A6ED"/>
<path d="M12.5185 28.001C18.0635 28.001 22.5585 23.394 22.5585 17.711C22.5585 12.028 18.0635 7.42101 12.5185 7.42101C6.97352 7.42101 2.47852 12.028 2.47852 17.711C2.47852 23.394 6.97352 28.001 12.5185 28.001Z" fill="#BEBEBE"/>
<path d="M12.5186 26.761C10.1586 26.761 7.93857 25.821 6.27857 24.111C4.60805 22.4007 3.67768 20.1017 3.68857 17.711C3.68857 15.291 4.60857 13.021 6.27857 11.311C7.08886 10.4736 8.05929 9.80772 9.13213 9.35296C10.205 8.8982 11.3583 8.66385 12.5236 8.66385C13.6888 8.66385 14.8422 8.8982 15.915 9.35296C16.9879 9.80772 17.9583 10.4736 18.7686 11.311C22.2086 14.841 22.2086 20.581 18.7686 24.111C17.0886 25.821 14.8686 26.761 12.5186 26.761ZM12.5086 9.891C10.5586 9.891 8.59857 10.651 7.11857 12.181C5.67868 13.6605 4.8778 15.6465 4.88857 17.711C4.88857 19.801 5.67857 21.761 7.11857 23.241C7.81677 23.9656 8.654 24.5419 9.58014 24.9354C10.5063 25.3289 11.5023 25.5315 12.5086 25.531C14.5486 25.531 16.4586 24.721 17.8986 23.241C20.8686 20.191 20.8686 15.231 17.8986 12.181C17.2011 11.4554 16.364 10.8785 15.4377 10.485C14.5114 10.0914 13.515 9.88938 12.5086 9.891Z" fill="#E6E6E6"/>
<path d="M14.3958 21.95H10.4258C10.2345 21.9505 10.0471 21.8961 9.88584 21.7933C9.72455 21.6905 9.59613 21.5436 9.51579 21.37C9.43301 21.1979 9.40125 21.0056 9.42429 20.816C9.44733 20.6264 9.5242 20.4473 9.64579 20.3L12.9458 16.25C13.2058 15.93 13.0858 15.59 13.0458 15.49C12.9989 15.3739 12.9189 15.2741 12.8158 15.203C12.7127 15.1319 12.591 15.0926 12.4658 15.09H12.4158C12.0958 15.09 11.8058 15.24 11.6158 15.5C11.2958 15.95 10.6658 16.06 10.2058 15.74C10.0973 15.6633 10.005 15.5659 9.93423 15.4535C9.86343 15.3411 9.81551 15.2158 9.79322 15.0848C9.77092 14.9538 9.77469 14.8197 9.8043 14.6902C9.83392 14.5607 9.8888 14.4383 9.96579 14.33C10.5258 13.54 11.4358 13.07 12.4058 13.07H12.5358C13.5558 13.12 14.4458 13.73 14.8658 14.66C15.2958 15.62 15.1558 16.71 14.4958 17.52L12.5458 19.92H14.3858C14.9458 19.92 15.3958 20.37 15.3958 20.93C15.3958 21.49 14.9558 21.95 14.3958 21.95Z" fill="#636363"/>
</svg>
