<svg width="26" height="28" viewBox="0 0 26 28" fill="none" xmlns="http://www.w3.org/2000/svg">
<path d="M15.3262 9.51L10.1062 0.93C9.76621 0.35 9.15621 0 8.48621 0H1.89621C0.44621 0 -0.46379 1.56 0.24621 2.82C1.56585 5.15472 3.42836 7.13729 5.67621 8.6C6.43621 9.19 7.37621 9.51 8.34621 9.51H15.3262Z" fill="#0074BA"/>
<path d="M23.2161 0H16.6261C15.9561 0 15.3461 0.35 15.0061 0.93L9.78613 9.51H16.7761C17.7461 9.51 18.6761 9.19 19.4461 8.6C21.6961 7.14 23.5561 5.16 24.8761 2.82C25.5761 1.56 24.6661 0 23.2161 0Z" fill="#00A6ED"/>
<path d="M12.5478 28C18.0928 28 22.5878 23.393 22.5878 17.71C22.5878 12.027 18.0928 7.42 12.5478 7.42C7.00281 7.42 2.50781 12.027 2.50781 17.71C2.50781 23.393 7.00281 28 12.5478 28Z" fill="#D3883E"/>
<path d="M12.5586 26.76C10.1986 26.76 7.97861 25.82 6.31861 24.11C4.64809 22.3997 3.71772 20.1007 3.72861 17.71C3.72861 15.29 4.64861 13.02 6.31861 11.31C7.1289 10.4726 8.09933 9.80673 9.17217 9.35197C10.245 8.89721 11.3984 8.66286 12.5636 8.66286C13.7289 8.66286 14.8822 8.89721 15.955 9.35197C17.0279 9.80673 17.9983 10.4726 18.8086 11.31C22.2486 14.84 22.2486 20.58 18.8086 24.11C17.1286 25.82 14.9086 26.76 12.5586 26.76ZM12.5486 9.89C10.5986 9.89 8.63861 10.65 7.15861 12.18C5.71872 13.6595 4.91784 15.6455 4.92861 17.71C4.92861 19.8 5.71861 21.76 7.15861 23.24C7.85681 23.9646 8.69404 24.5409 9.62018 24.9344C10.5463 25.3279 11.5423 25.5305 12.5486 25.53C14.5886 25.53 16.4986 24.72 17.9386 23.24C20.9086 20.19 20.9086 15.23 17.9386 12.18C17.2411 11.4544 16.404 10.8775 15.4777 10.484C14.5514 10.0904 13.5551 9.88838 12.5486 9.89Z" fill="#F3AD61"/>
<path d="M13.9603 16.275L15.0083 14.465C15.0937 14.3164 15.1387 14.1479 15.1387 13.9765C15.1387 13.8051 15.0937 13.6366 15.0083 13.488C14.9232 13.3394 14.8003 13.216 14.652 13.1303C14.5038 13.0446 14.3355 12.9996 14.1643 13H11.0723C10.8187 13.0081 10.5782 13.1146 10.4017 13.2968C10.2252 13.479 10.1265 13.7228 10.1265 13.9765C10.1265 14.2302 10.2252 14.474 10.4017 14.6562C10.5782 14.8384 10.8187 14.9449 11.0723 14.953H12.4753L11.7233 16.264C11.5857 16.4338 11.5102 16.6455 11.5093 16.864C11.5093 17.404 11.9473 17.841 12.4863 17.841C13.0963 17.841 13.5943 18.339 13.5943 18.949C13.5943 19.559 13.0963 20.058 12.4863 20.058C12.0183 20.058 11.6013 19.763 11.4483 19.325C11.3612 19.083 11.182 18.8852 10.9498 18.7747C10.7175 18.6642 10.451 18.6499 10.2083 18.735C10.0876 18.7771 9.97649 18.8427 9.88136 18.9281C9.78624 19.0135 9.709 19.1169 9.65412 19.2323C9.59925 19.3477 9.56782 19.4729 9.56167 19.6006C9.55551 19.7282 9.57476 19.8558 9.61828 19.976C9.83088 20.5669 10.2201 21.0781 10.7332 21.4401C11.2463 21.8022 11.8583 21.9977 12.4863 22C13.2949 21.9992 14.0703 21.6776 14.6421 21.1058C15.2139 20.534 15.5355 19.7587 15.5363 18.95C15.535 18.4043 15.3884 17.8688 15.1114 17.3986C14.8343 16.9284 14.437 16.5406 13.9603 16.275Z" fill="#402A32"/>
</svg>
