<svg width="19" height="18" viewBox="0 0 19 18" fill="none" xmlns="http://www.w3.org/2000/svg">
<path fill-rule="evenodd" clip-rule="evenodd" d="M3.99196 1.07463C5.23988 1.07463 6.25352 2.08961 6.25352 3.33618C6.25352 4.58301 5.23988 5.59773 3.99196 5.59773C2.7454 5.59773 1.73149 4.58301 1.73149 3.33618C1.73149 2.08961 2.7454 1.07463 3.99196 1.07463ZM3.99196 6.67236C5.83173 6.67236 7.32814 5.17594 7.32814 3.33618C7.32814 1.49669 5.83173 0 3.99196 0C2.15355 0 0.65686 1.49669 0.65686 3.33618C0.65686 5.17594 2.15247 6.67236 3.99196 6.67236Z" fill="#1D1D1B"/>
<path fill-rule="evenodd" clip-rule="evenodd" d="M2.78197 3.33617L2.78116 3.26497C2.78009 3.23462 2.78009 3.23462 2.78627 3.19888C2.81367 3.053 2.71803 2.91223 2.57322 2.88509C2.42734 2.85769 2.28683 2.95226 2.25835 3.09814C2.24465 3.15886 2.24062 3.22091 2.24385 3.28271L2.24465 3.33617C2.24895 3.48097 2.36743 3.5965 2.51331 3.5965C2.65838 3.5965 2.77686 3.48205 2.78197 3.33617Z" fill="#1D1D1B"/>
<path fill-rule="evenodd" clip-rule="evenodd" d="M2.76205 2.78219C2.85231 2.78219 2.9364 2.73813 2.98557 2.66264C3.21016 2.32682 3.5879 2.12533 3.99196 2.12533C4.14106 2.12533 4.26061 2.00551 4.26061 1.85667C4.26061 1.70864 4.14106 1.58801 3.99196 1.58801C3.4087 1.58801 2.86387 1.8787 2.5396 2.36336C2.48506 2.44637 2.47969 2.55222 2.5259 2.63954C2.57211 2.72765 2.66345 2.78219 2.76205 2.78219Z" fill="#1D1D1B"/>
<path fill-rule="evenodd" clip-rule="evenodd" d="M11.5145 1.07463C12.7624 1.07463 13.7761 2.08961 13.7761 3.33618C13.7761 4.58301 12.7624 5.59773 11.5145 5.59773C10.2677 5.59773 9.25297 4.58301 9.25297 3.33618C9.25378 2.08961 10.2677 1.07463 11.5145 1.07463ZM11.5145 6.67236C13.3543 6.67236 14.8507 5.17594 14.8507 3.33618C14.8507 1.49669 13.3543 0 11.5145 0C9.67476 0 8.17834 1.49669 8.17834 3.33618C8.17915 5.17594 9.67584 6.67236 11.5145 6.67236Z" fill="#1D1D1B"/>
<path fill-rule="evenodd" clip-rule="evenodd" d="M10.2846 2.78219C10.3748 2.78219 10.4587 2.73813 10.5081 2.66264C10.7327 2.32682 11.1104 2.12533 11.5145 2.12533C11.6636 2.12533 11.7831 2.00551 11.7831 1.85667C11.7831 1.70864 11.6636 1.58801 11.5145 1.58801C10.931 1.58801 10.3864 1.8787 10.0621 2.36336C10.0065 2.44637 10.0011 2.55222 10.0484 2.63954C10.0946 2.72765 10.186 2.78219 10.2846 2.78219Z" fill="#1D1D1B"/>
<path fill-rule="evenodd" clip-rule="evenodd" d="M17.2255 16.1656C17.151 16.149 17.0713 16.1237 17.0156 16.106C13.4014 14.2033 13.2754 14.2001 13.1158 14.2001C12.9678 14.2001 12.8262 14.2547 12.7244 14.3627C12.6226 14.4699 12.5702 14.601 12.5796 14.749L12.6583 16.0482C12.651 16.4649 12.3077 16.7336 11.8711 16.7336H1.8943C1.43785 16.7336 1.07463 16.5404 1.07463 16.1237V9.10075C1.07463 8.64645 1.47439 8.13762 1.8943 8.13762V8.13654H11.8711C12.2932 8.13654 12.65 8.55833 12.6583 8.99597L12.5796 10.1555C12.5691 10.3046 12.6215 10.4513 12.7222 10.5606C12.8241 10.6697 12.9667 10.7318 13.1158 10.7318C13.291 10.7318 13.3383 10.7318 17.0481 8.74612C17.1215 8.71147 17.1771 8.69051 17.2182 8.67896C17.2244 8.72732 17.2287 8.7977 17.2265 8.90356L17.2255 16.1656ZM17.961 7.86251C17.7848 7.68305 17.5656 7.5866 17.298 7.5866C17.0807 7.5866 16.8467 7.64436 16.5621 7.78164C15.6167 8.28645 14.6689 8.78508 13.7192 9.28021L13.7319 9.07872C13.7329 9.06636 13.734 9.02633 13.734 9.01263C13.734 7.96756 12.8987 7.06299 11.8711 7.06299H1.8943C0.884687 7.06299 0 8.05567 0 9.10075V16.1237C0 17.129 0.85003 17.8082 1.8943 17.8082H11.8711C12.9071 17.8082 13.7192 17.0705 13.7329 16.0565C13.7319 16.0587 13.7319 16.0595 13.7319 16.0576L13.7047 15.6106C14.4183 15.9684 15.5276 16.5436 16.5549 17.085C16.5842 17.1005 16.6116 17.1145 16.643 17.1239C16.9232 17.2099 17.1457 17.2698 17.3609 17.2709C17.744 17.2676 17.9758 17.0809 18.0881 16.9246C18.2224 16.7397 18.2687 16.5004 18.2687 16.1772V8.92048C18.2687 8.70636 18.2958 8.20263 17.961 7.86251Z" fill="#1D1D1B"/>
<path fill-rule="evenodd" clip-rule="evenodd" d="M13.7319 16.0575L13.733 16.0408C13.733 16.047 13.7319 16.0521 13.7319 16.0575Z" fill="#1D1D1B"/>
<path fill-rule="evenodd" clip-rule="evenodd" d="M17.3682 17.272L17.361 17.2709L17.3524 17.272H17.3682Z" fill="#1D1D1B"/>
<path fill-rule="evenodd" clip-rule="evenodd" d="M4.86725 8.67383H2.58582C2.04636 8.67383 1.61194 9.33902 1.61194 9.83657V11.2019C1.61194 11.3499 1.73149 11.4692 1.8806 11.4692C2.02863 11.4692 2.14925 11.3499 2.14925 11.2005V9.83523C2.14925 9.58565 2.3897 9.21222 2.58582 9.21222H4.86725C5.01636 9.21222 5.13591 9.09132 5.13591 8.94248C5.13591 8.79446 5.01636 8.67383 4.86725 8.67383Z" fill="#1D1D1B"/>
<path fill-rule="evenodd" clip-rule="evenodd" d="M6.21053 8.67493H5.94187C5.79384 8.67493 5.67322 8.79448 5.67322 8.94358C5.67322 9.09134 5.79384 9.21224 5.94187 9.21224H6.21053C6.35964 9.21224 6.47919 9.09134 6.47919 8.94358C6.47919 8.79448 6.35964 8.67493 6.21053 8.67493Z" fill="#1D1D1B"/>
</svg>
